<?xml version="1.0" encoding="UTF-8"?>
<svg xmlns="http://www.w3.org/2000/svg" id="linkedin" width="15.522" height="15.522" viewBox="0 0 15.522 15.522">
  <path id="Path_49" data-name="Path 49" d="M14.641,18.522H6.88A3.885,3.885,0,0,1,3,14.641V6.88A3.885,3.885,0,0,1,6.88,3h7.761a3.885,3.885,0,0,1,3.88,3.88v7.761A3.885,3.885,0,0,1,14.641,18.522ZM6.88,4.293A2.59,2.59,0,0,0,4.293,6.88v7.761A2.59,2.59,0,0,0,6.88,17.228h7.761a2.59,2.59,0,0,0,2.587-2.587V6.88a2.59,2.59,0,0,0-2.587-2.587Z" transform="translate(-3 -3)" fill="#2e384d"></path>
  <path id="Path_50" data-name="Path 50" d="M8.793,9.987v4.586a.647.647,0,1,1-1.293,0V9.987a.647.647,0,1,1,1.293,0ZM8.147,7.2a.647.647,0,0,0-.647.647v.129a.647.647,0,1,0,1.293,0V7.847A.647.647,0,0,0,8.147,7.2Zm5.371,2.227a2.683,2.683,0,0,0-2.14.589.646.646,0,0,0-1.29.031v4.526a.647.647,0,1,0,1.293,0V12.16c.008-.015.017-.028.023-.044.444-1.085,1.273-1.536,1.864-1.42.445.087.7.49.7,1.105v2.771a.647.647,0,1,0,1.293,0V11.8A2.25,2.25,0,0,0,13.517,9.427Z" transform="translate(-3.62 -3.578)" fill="#2e384d"></path>
</svg>
