<?xml version="1.0" encoding="UTF-8"?>
<svg xmlns="http://www.w3.org/2000/svg" width="15.475" height="14.947" viewBox="0 0 15.475 14.947">
  <g id="x" transform="translate(0)">
    <path id="Path_47" data-name="Path 47" d="M10.625,12.522l-4.918,5.7a.659.659,0,1,1-.994-.867l5.075-5.879Zm1.789-2.05,5.075-5.879a.659.659,0,0,0-.994-.867l-4.918,5.7Z" transform="translate(-3.363 -3.5)" fill="#2e384d"></path>
    <path id="Path_48" data-name="Path 48" d="M18.015,18.447H14.586a.659.659,0,0,1-.515-.248L3.345,4.571A.659.659,0,0,1,3.859,3.5H7.289a.659.659,0,0,1,.515.248L18.53,17.376a.659.659,0,0,1-.515,1.071ZM14.9,17.128h1.74L6.972,4.819H5.232Z" transform="translate(-3.2 -3.5)" fill="#2e384d"></path>
  </g>
</svg>
