<svg xmlns="http://www.w3.org/2000/svg" width="27" height="26.911" viewBox="0 0 27 26.911">
  <g id="arrow-down-circle" transform="translate(0 26.911) rotate(-90)">
    <path id="Path_182128" data-name="Path 182128" d="M28.948,24.515,26.23,27.188V19.48a.98.98,0,0,0-1.96,0v7.708l-2.718-2.673a1.008,1.008,0,0,0-1.426,1.426l4.411,4.366a1.012,1.012,0,0,0,.713.267,1.092,1.092,0,0,0,.713-.267l4.411-4.366a1.008,1.008,0,0,0-1.426-1.426Z" transform="translate(-11.794 -11.015)" fill="#6953d3"/>
    <path id="Path_182129" data-name="Path 182129" d="M15.256,1.7A13.5,13.5,0,1,0,28.711,15.2,13.482,13.482,0,0,0,15.256,1.7Zm0,25a11.5,11.5,0,1,1,11.5-11.5A11.523,11.523,0,0,1,15.256,26.7Z" transform="translate(-1.8 -1.7)" fill="#6953d3"/>
  </g>
</svg>
