<svg xmlns="http://www.w3.org/2000/svg" width="14.063" height="11.986" viewBox="0 0 14.063 11.986">
  <g id="calender-alt-1" transform="translate(-1.2 -5.8)">
    <path id="Path_272" data-name="Path 272" d="M13.939,6.85H12.5V6.211a.411.411,0,1,0-.822,0V6.85H4.761V6.211a.411.411,0,1,0-.822,0V6.85H2.524A1.325,1.325,0,0,0,1.2,8.174v8.287a1.325,1.325,0,0,0,1.324,1.324H13.939a1.325,1.325,0,0,0,1.324-1.324V8.151A1.306,1.306,0,0,0,13.939,6.85Zm-11.415.8H3.962v.616a.411.411,0,1,0,.822,0V7.649h6.94v.616a.411.411,0,1,0,.822,0V7.649h1.393a.531.531,0,0,1,.525.525V9.909H2.022V8.174A.512.512,0,0,1,2.524,7.649Zm11.415,9.315H2.524A.531.531,0,0,1,2,16.439V10.686H14.441v5.753A.5.5,0,0,1,13.939,16.964Z" fill="#fff"/>
  </g>
</svg>
