<svg xmlns="http://www.w3.org/2000/svg" width="15.522" height="15.522" viewBox="0 0 15.522 15.522">
  <g id="facebook" transform="translate(0)">
    <path id="Path_182388" data-name="Path 182388" d="M14.485,8.793h1.407a.647.647,0,0,0,0-1.293H14.485a2.736,2.736,0,0,0-2.733,2.733V11.38h-.905a.647.647,0,0,0,0,1.293h.905v5.433a.647.647,0,1,0,1.293,0V12.674h2.587a.647.647,0,0,0,0-1.293H13.046V10.233A1.441,1.441,0,0,1,14.485,8.793Z" transform="translate(-3.991 -3.62)" fill="#2e384d"/>
    <path id="Path_182389" data-name="Path 182389" d="M14.641,18.522H6.88A3.885,3.885,0,0,1,3,14.641V6.88A3.885,3.885,0,0,1,6.88,3h7.761a3.885,3.885,0,0,1,3.88,3.88v7.761A3.885,3.885,0,0,1,14.641,18.522ZM6.88,4.293A2.59,2.59,0,0,0,4.293,6.88v7.761A2.59,2.59,0,0,0,6.88,17.228h7.761a2.59,2.59,0,0,0,2.587-2.587V6.88a2.59,2.59,0,0,0-2.587-2.587Z" transform="translate(-3 -3)" fill="#2e384d"/>
  </g>
</svg>
