<svg id="Component_8_35" data-name="Component 8 – 35" xmlns="http://www.w3.org/2000/svg" width="30" height="30" viewBox="0 0 30 30">
  <g id="linkedin">
    <path id="Path_49" data-name="Path 49" d="M25.5,33h-15A7.509,7.509,0,0,1,3,25.5v-15A7.509,7.509,0,0,1,10.5,3h15A7.509,7.509,0,0,1,33,10.5v15A7.509,7.509,0,0,1,25.5,33ZM10.5,5.5a5.006,5.006,0,0,0-5,5v15a5.006,5.006,0,0,0,5,5h15a5.006,5.006,0,0,0,5-5v-15a5.006,5.006,0,0,0-5-5Z" transform="translate(-3 -3)" fill="#fff"/>
    <path id="Path_50" data-name="Path 50" d="M10,12.587V21.45a1.25,1.25,0,1,1-2.5,0V12.587a1.25,1.25,0,0,1,2.5,0ZM8.75,7.2A1.25,1.25,0,0,0,7.5,8.45V8.7a1.25,1.25,0,1,0,2.5,0V8.45A1.25,1.25,0,0,0,8.75,7.2Zm10.38,4.3a5.185,5.185,0,0,0-4.136,1.139A1.248,1.248,0,0,0,12.5,12.7V21.45a1.25,1.25,0,0,0,2.5,0V16.787c.014-.029.033-.054.045-.085.858-2.1,2.461-2.969,3.6-2.744.859.169,1.352.948,1.352,2.136V21.45a1.25,1.25,0,1,0,2.5,0V16.094A4.349,4.349,0,0,0,19.13,11.5Z" transform="translate(0 -0.2)" fill="#fff"/>
  </g>
</svg>
