<svg xmlns="http://www.w3.org/2000/svg" width="15.529" height="15.522" viewBox="0 0 15.529 15.522">
  <g id="Icon_ionic-ios-link" data-name="Icon ionic-ios-link" transform="translate(0)">
    <path id="Path_182392" data-name="Path 182392" d="M12.031,18.836l-.045,0a.617.617,0,0,0-.358.168l-2.41,2.41a2.718,2.718,0,0,1-3.843-3.843l2.56-2.56a2.7,2.7,0,0,1,.425-.347,2.743,2.743,0,0,1,.552-.28,2.613,2.613,0,0,1,.56-.138,2.646,2.646,0,0,1,.381-.026c.052,0,.1,0,.172.007a2.71,2.71,0,0,1,1.746.784,2.675,2.675,0,0,1,.638,1.019.587.587,0,0,0,.72.377s.007,0,.011,0,.007,0,.007,0a.583.583,0,0,0,.392-.713,3.381,3.381,0,0,0-.918-1.53,3.928,3.928,0,0,0-2.149-1.093c-.071-.011-.142-.022-.213-.03a3.851,3.851,0,0,0-.414-.022c-.1,0-.194,0-.287.011a3.763,3.763,0,0,0-.6.093c-.041.007-.078.019-.119.03a3.881,3.881,0,0,0-.728.272,3.833,3.833,0,0,0-1.034.743l-2.56,2.56A3.936,3.936,0,0,0,3.375,19.5a3.923,3.923,0,0,0,6.694,2.772l2.436-2.437A.591.591,0,0,0,12.031,18.836Z" transform="translate(-3.375 -7.899)" fill="#2e384d"/>
    <path id="Path_182393" data-name="Path 182393" d="M22.488,4.52a3.932,3.932,0,0,0-5.548,0L14.563,6.9A.6.6,0,0,0,14.94,7.92a.606.606,0,0,0,.474-.172l2.381-2.373a2.718,2.718,0,0,1,3.843,3.843l-2.56,2.56a2.7,2.7,0,0,1-.425.347,2.743,2.743,0,0,1-.552.28,2.613,2.613,0,0,1-.56.138,2.646,2.646,0,0,1-.381.026c-.052,0-.108,0-.172-.007a2.681,2.681,0,0,1-2.358-1.735.6.6,0,0,0-.713-.366.6.6,0,0,0-.422.765,3.408,3.408,0,0,0,.884,1.4h0l.007.007a3.928,3.928,0,0,0,2.362,1.123,3.851,3.851,0,0,0,.414.022q.146,0,.291-.011a4.266,4.266,0,0,0,.72-.119,3.881,3.881,0,0,0,.728-.272,3.833,3.833,0,0,0,1.034-.743l2.56-2.56a3.928,3.928,0,0,0-.007-5.552Z" transform="translate(-8.112 -3.375)" fill="#2e384d"/>
  </g>
</svg>
