<svg xmlns="http://www.w3.org/2000/svg" xmlns:xlink="http://www.w3.org/1999/xlink" width="190.653" height="42.024" viewBox="0 0 190.653 42.024">
  <defs>
    <clipPath id="clip-path">
      <rect id="Rectangle_65" data-name="Rectangle 65" width="190.653" height="42.024" transform="translate(0 0)" fill="none"/>
    </clipPath>
  </defs>
  <g id="Group_10" data-name="Group 10" transform="translate(0 0)">
    <g id="Group_9" data-name="Group 9" transform="translate(0 0)" clip-path="url(#clip-path)">
      <path id="Path_259" data-name="Path 259" d="M13.97,29.518v-13.2h6.583V8.866H13.97V0h-8.6V8.866H0v7.456H5.373V33.25c.012.749,0,.972.017,1.581,0,.083.509-1.256.831-1.762,1.708-2.677,4.056-3.918,7.749-3.552" transform="translate(0 0)" fill="#2e384d"/>
      <path id="Path_260" data-name="Path 260" d="M34.006,82.691V75.459H26.334c-.146,4.669,4.274,8.286,7.672,7.232" transform="translate(-14.255 -40.851)" fill="#ee1e2b"/>
      <path id="Path_261" data-name="Path 261" d="M360.442,13.47a16.039,16.039,0,0,0-12.057,4.9,16.733,16.733,0,0,0-4.735,12.09q0,7.657,4.9,12.359a17.226,17.226,0,0,0,12.426,4.7q8.464,0,13.367-4.5l-3.762-5.508a10.331,10.331,0,0,1-4,2.351,14.329,14.329,0,0,1-4.668.873c-14.317,0-13.695-20.718-1.454-20.718a8.32,8.32,0,0,1,6.751,13.2h9.48V31.337q0-7.992-4.5-12.93a15.161,15.161,0,0,0-11.755-4.937" transform="translate(-186.043 -7.292)" fill="#2e384d"/>
      <path id="Path_262" data-name="Path 262" d="M350.795,42.505h24.433v6.432h-18A6.432,6.432,0,0,1,350.795,42.505Z" transform="translate(-189.912 -23.011)" fill="#2e384d"/>
      <path id="Path_263" data-name="Path 263" d="M210.57,24.691,205.4,38.475l-8.462-22.569H187.8L200.834,48.35h9.2l8.557-21.186a4.5,4.5,0,0,1-2.849.87,5.6,5.6,0,0,1-5.174-3.342" transform="translate(-101.672 -8.611)" fill="#2e384d"/>
      <path id="Path_264" data-name="Path 264" d="M246.509,24.489V16.442h-8.047a8.046,8.046,0,0,0,8.047,8.047" transform="translate(-129.098 -8.901)" fill="#03b9ad"/>
      <path id="Path_265" data-name="Path 265" d="M285.863,24.691l-5.169,13.784-8.462-22.569H263.1L276.127,48.35h9.2l9.047-22.524a8.31,8.31,0,0,1-8.513-1.134" transform="translate(-142.434 -8.611)" fill="#2e384d"/>
      <path id="Path_266" data-name="Path 266" d="M280.263,24.691l5.161,13.784,8.448-22.569h9.122L289.983,48.35H280.8l-9.033-22.524a8.286,8.286,0,0,0,8.5-1.134" transform="translate(-147.126 -8.611)" fill="#2e384d"/>
      <path id="Path_267" data-name="Path 267" d="M66.846,15.226H58.925V47.67h8.531V26.243c0-.1,0-.111,0-.2a8.2,8.2,0,0,1-2.246-5.875,8.284,8.284,0,0,1,1.638-4.945" transform="translate(-31.901 -8.243)" fill="#2e384d"/>
      <path id="Path_268" data-name="Path 268" d="M95.418,23.273V15.226H87.371a8.046,8.046,0,0,0,8.047,8.047" transform="translate(-47.301 -8.243)" fill="#f7941f"/>
      <path id="Path_269" data-name="Path 269" d="M127.316,13.47q-7.792,0-12.461,4.9a16.864,16.864,0,0,0-4.668,12.091,16.98,16.98,0,0,0,4.668,12.124q4.668,4.936,12.461,4.937t12.492-4.937a16.918,16.918,0,0,0,4.7-12.124,16.8,16.8,0,0,0-4.7-12.091q-4.7-4.9-12.492-4.9m6.079,23.744a7.477,7.477,0,0,1-6.079,2.72,7.38,7.38,0,0,1-6.046-2.72,10.337,10.337,0,0,1-2.217-6.75,10.238,10.238,0,0,1,2.217-6.684,7.38,7.38,0,0,1,6.046-2.721,7.478,7.478,0,0,1,6.079,2.721,10.141,10.141,0,0,1,2.25,6.684,10.238,10.238,0,0,1-2.25,6.75" transform="translate(-59.652 -7.292)" fill="#2e384d"/>
    </g>
  </g>
</svg>
