<svg xmlns="http://www.w3.org/2000/svg" xmlns:xlink="http://www.w3.org/1999/xlink" width="168.933" height="37.237" viewBox="0 0 168.933 37.237">
  <defs>
    <clipPath id="clip-path">
      <rect id="Rectangle_65" data-name="Rectangle 65" width="168.933" height="37.237" fill="none"/>
    </clipPath>
  </defs>
  <g id="Group_9" data-name="Group 9" clip-path="url(#clip-path)">
    <path id="Path_259" data-name="Path 259" d="M12.379,26.155V14.463h5.833V7.856H12.379V0H4.761V7.856H0v6.607H4.761v15c.011.664,0,.862.015,1.4,0,.074.451-1.113.736-1.561,1.513-2.372,3.594-3.472,6.867-3.147" transform="translate(0 0)" fill="#fff"/>
    <path id="Path_260" data-name="Path 260" d="M33.132,81.868V75.459h-6.8c-.13,4.137,3.787,7.342,6.8,6.409" transform="translate(-15.63 -44.794)" fill="#ee1e2b"/>
    <path id="Path_261" data-name="Path 261" d="M358.528,13.47a14.211,14.211,0,0,0-10.684,4.345,14.827,14.827,0,0,0-4.2,10.713,14.477,14.477,0,0,0,4.345,10.951A15.264,15.264,0,0,0,359,43.645q7.5,0,11.844-3.988l-3.333-4.881a9.154,9.154,0,0,1-3.541,2.083,12.7,12.7,0,0,1-4.136.773c-12.686,0-12.135-18.358-1.289-18.358a7.372,7.372,0,0,1,5.982,11.692h8.4V29.3q0-7.081-3.988-11.457a13.434,13.434,0,0,0-10.415-4.375" transform="translate(-203.999 -7.996)" fill="#fff"/>
    <path id="Path_262" data-name="Path 262" d="M350.795,42.505h21.649v5.7h-15.95A5.7,5.7,0,0,1,350.795,42.505Z" transform="translate(-208.241 -25.232)" fill="#fff"/>
    <path id="Path_263" data-name="Path 263" d="M207.976,23.691,203.4,35.9l-7.5-20h-8.1L199.35,44.653H207.5l7.583-18.773a3.984,3.984,0,0,1-2.525.771,4.961,4.961,0,0,1-4.585-2.961" transform="translate(-111.485 -9.442)" fill="#fff"/>
    <path id="Path_264" data-name="Path 264" d="M245.592,23.572v-7.13h-7.13a7.13,7.13,0,0,0,7.13,7.13" transform="translate(-141.557 -9.76)" fill="#03b9ad"/>
    <path id="Path_265" data-name="Path 265" d="M283.269,23.691,278.689,35.9l-7.5-20h-8.1l11.547,28.747H282.8L290.812,24.7a7.363,7.363,0,0,1-7.543-1" transform="translate(-156.18 -9.442)" fill="#fff"/>
    <path id="Path_266" data-name="Path 266" d="M279.294,23.691,283.868,35.9l7.486-20h8.083L287.907,44.653h-8.14l-8-19.958a7.342,7.342,0,0,0,7.531-1" transform="translate(-161.325 -9.442)" fill="#fff"/>
    <path id="Path_267" data-name="Path 267" d="M65.944,15.226H58.925V43.973h7.559V24.988c0-.087,0-.1,0-.174a7.266,7.266,0,0,1-1.99-5.206,7.34,7.34,0,0,1,1.452-4.382" transform="translate(-34.979 -9.038)" fill="#fff"/>
    <path id="Path_268" data-name="Path 268" d="M94.5,22.356v-7.13h-7.13a7.13,7.13,0,0,0,7.13,7.13" transform="translate(-51.866 -9.038)" fill="#f7941f"/>
    <path id="Path_269" data-name="Path 269" d="M125.364,13.47q-6.9,0-11.042,4.345a14.943,14.943,0,0,0-4.136,10.713,15.046,15.046,0,0,0,4.136,10.743q4.136,4.374,11.042,4.375a14.577,14.577,0,0,0,11.069-4.375A14.99,14.99,0,0,0,140.6,28.528a14.888,14.888,0,0,0-4.167-10.713q-4.166-4.344-11.069-4.345m5.386,21.039a6.625,6.625,0,0,1-5.386,2.41,6.539,6.539,0,0,1-5.357-2.41,9.159,9.159,0,0,1-1.965-5.981,9.072,9.072,0,0,1,1.965-5.922,6.54,6.54,0,0,1,5.357-2.411,6.626,6.626,0,0,1,5.386,2.411,8.986,8.986,0,0,1,1.994,5.922,9.072,9.072,0,0,1-1.994,5.981" transform="translate(-65.409 -7.996)" fill="#fff"/>
  </g>
</svg>
