<?xml version="1.0" encoding="UTF-8"?>
<svg version="1.1" xmlns="http://www.w3.org/2000/svg" width="479" height="1736">
<path d="M0 0 C5.56340585 3.36669624 9.53349183 8.25193794 11.5 14.4375 C12.30594257 22.2813829 12.59671889 30.02934467 7.5 36.4375 C3.06002136 41.12998927 -1.17304442 44.01502945 -7.69921875 44.84375 C-16.1408729 45.07062536 -22.1267117 44.25049922 -28.5 38.4375 C-33.27440241 33.20291423 -34.88339966 28.36420998 -35.125 21.3125 C-34.73726351 13.36821007 -32.93775865 8.42463562 -27.0625 3.0625 C-19.84507341 -2.93248543 -8.52200107 -3.84066973 0 0 Z " fill="#FF837F" transform="translate(467.5,1.5625)"/>
<path d="M0 0 C3.17852316 1.64448689 5.37801764 3.75603527 7 7 C8.03037808 16.00844834 8.03037808 16.00844834 5.953125 20.0234375 C3.47535361 23.0113383 1.48573267 24.83006326 -2.390625 25.2734375 C-11.06433361 25.58152005 -11.06433361 25.58152005 -14.5625 22.8125 C-18.17332572 18.64616263 -19.02556721 16.61073443 -18.9375 11.0625 C-18.23065992 6.51113946 -16.21711484 4.21711484 -13 1 C-9.03716439 -0.98141781 -4.30789762 -0.55820645 0 0 Z " fill="#FF837F" transform="translate(293,1711)"/>
</svg>
