<svg xmlns="http://www.w3.org/2000/svg" width="20.551" height="18.805" viewBox="0 0 20.551 18.805">
  <path id="search-alt_1_" data-name="search-alt (1)" d="M20.185,19.965l-5.455-4.428a8.059,8.059,0,0,0-.866-10.429A8.058,8.058,0,0,0,2.407,5.075a8.151,8.151,0,0,0,5.744,13.9,7.868,7.868,0,0,0,5.487-2.15l5.552,4.525a.656.656,0,0,0,.513.16.759.759,0,0,0,.674-.353A.823.823,0,0,0,20.185,19.965ZM8.119,17.237a6.309,6.309,0,0,1-4.525-1.893A6.442,6.442,0,0,1,1.7,10.819,6.309,6.309,0,0,1,3.594,6.294,6.5,6.5,0,0,1,8.119,4.4a6.309,6.309,0,0,1,4.525,1.893,6.5,6.5,0,0,1,1.893,4.525,6.309,6.309,0,0,1-1.893,4.525A6.255,6.255,0,0,1,8.119,17.237Z" transform="translate(0 -2.7)" fill="#616161"/>
</svg>
