<svg width="1920" height="529" viewBox="0 0 1920 529" fill="none" xmlns="http://www.w3.org/2000/svg">
<path d="M1920 179H0V529H1920V179Z" fill="#4E1C99"/>
<path d="M1076 486C1393.56 486 1651 415.485 1651 328.5C1651 241.515 1393.56 171 1076 171C758.436 171 501 241.515 501 328.5C501 415.485 758.436 486 1076 486Z" fill="#6953D3"/>
<path d="M473.5 382C514.093 382 547 349.093 547 308.5C547 267.907 514.093 235 473.5 235C432.907 235 400 267.907 400 308.5C400 349.093 432.907 382 473.5 382Z" fill="#FF847F"/>
<path d="M68.5 348C130.632 348 181 297.632 181 235.5C181 173.368 130.632 123 68.5 123C6.36797 123 -44 173.368 -44 235.5C-44 297.632 6.36797 348 68.5 348Z" fill="#6614AA"/>
<path d="M318.5 225C380.632 225 431 174.632 431 112.5C431 50.368 380.632 0 318.5 0C256.368 0 206 50.368 206 112.5C206 174.632 256.368 225 318.5 225Z" fill="#6953D3"/>
<path d="M1693.5 250C1778.83 250 1848 215.302 1848 172.5C1848 129.698 1778.83 95 1693.5 95C1608.17 95 1539 129.698 1539 172.5C1539 215.302 1608.17 250 1693.5 250Z" fill="white"/>
</svg>
