<svg id="Component_6_35" data-name="Component 6 – 35" xmlns="http://www.w3.org/2000/svg" width="29.909" height="28.89" viewBox="0 0 29.909 28.89">
  <g id="x">
    <path id="Path_47" data-name="Path 47" d="M16.29,20.937,6.785,31.953a1.274,1.274,0,1,1-1.92-1.676l9.808-11.362Zm3.458-3.962L29.556,5.613a1.275,1.275,0,0,0-1.92-1.676L18.13,14.952Z" transform="translate(-2.256 -3.5)" fill="#fff"/>
    <path id="Path_48" data-name="Path 48" d="M31.834,32.389H25.207a1.274,1.274,0,0,1-1-.478L3.479,5.571a1.275,1.275,0,0,1,1-2.071H11.1a1.274,1.274,0,0,1,1,.478L32.83,30.319a1.275,1.275,0,0,1-1,2.071ZM25.819,29.84h3.363L10.489,6.049H7.126Z" transform="translate(-3.2 -3.5)" fill="#fff"/>
  </g>
</svg>
